<svg width="85" height="24" viewBox="0 0 85 24" fill="none" xmlns="http://www.w3.org/2000/svg">
<path d="M15.7339 9.67434C14.8368 10.4211 14.3885 11.4597 14.5109 12.5077L14.4899 12.4902C14.6157 13.7235 14.078 14.9399 13.0203 15.815C11.9626 16.6902 10.4924 17.135 9.0018 17.0309L9.02285 17.0483C7.21813 16.9093 5.50184 17.7215 4.73165 19.079C3.96147 20.4365 5.21893 20.9856 6.50116 22.0456C7.78339 23.1055 8.81505 24.4486 10.4551 23.8102C12.0952 23.1717 13.0753 21.751 12.9057 20.2579L12.9279 20.2753C12.8021 19.0421 13.3397 17.8257 14.3974 16.9506C15.4552 16.0754 16.9254 15.6306 18.416 15.7347L18.3937 15.7173C20.3772 15.8649 22.2228 14.8642 22.851 13.3007C23.4793 11.7372 22.0101 11.0697 20.3147 10.2054C18.6192 9.34109 17.1428 8.50701 15.7374 9.67434H15.7339Z" fill="white"/>
<path d="M7.91257 14.8112C8.80978 14.0646 9.25774 13.0258 9.13435 11.9779L9.15657 11.9953C9.03065 10.7617 9.56861 9.54495 10.6269 8.66974C11.6852 7.79453 13.156 7.34996 14.647 7.45467L14.6248 7.43725C16.429 7.5771 18.1455 6.76586 18.9164 5.40898C19.6873 4.05209 17.6498 3.37242 16.3684 2.31225C15.0871 1.25207 14.837 0.0390659 13.1969 0.676875C11.5569 1.31468 10.5764 2.73486 10.7455 4.22764L10.7244 4.21023C10.8502 5.44347 10.3126 6.65989 9.25485 7.53502C8.19712 8.41015 6.7269 8.855 5.23634 8.75089L5.25738 8.76831C3.27401 8.62114 1.86722 8.97105 1.23935 10.5346C0.611492 12.0981 1.23936 12.5079 2.88382 13.4946C4.57929 14.3587 6.5096 15.9785 7.91491 14.8112H7.91257Z" fill="white"/>
<path d="M33.5091 21.1241C36.3152 21.1241 38.3096 19.8457 38.3096 17.3336V7.41958H35.6057V9.06873H35.5034C35.1391 8.26972 34.3401 7.29174 32.6973 7.29174C30.5432 7.29174 28.7215 8.96646 28.7215 12.3095C28.7215 15.5758 30.4921 17.0971 32.7037 17.0971C34.2698 17.0971 35.1455 16.3109 35.5034 15.4991H35.6185V17.2953C35.6185 18.644 34.7556 19.1682 33.5731 19.1682C32.3713 19.1682 31.7641 18.644 31.5404 18.0496L29.0219 18.3883C29.3479 19.9352 30.8628 21.1241 33.5091 21.1241ZM33.5667 15.0517C32.2307 15.0517 31.502 13.9906 31.502 12.2967C31.502 10.6284 32.2179 9.45864 33.5667 9.45864C34.8898 9.45864 35.6313 10.5773 35.6313 12.2967C35.6313 14.029 34.877 15.0517 33.5667 15.0517Z" fill="white"/>
<path d="M42.1576 20.9196C44.1838 20.9196 45.2577 19.8841 45.8138 18.2988L49.6299 7.43237L46.7471 7.41958L44.6952 14.6298H44.5929L42.5603 7.41958H39.6966L43.2186 17.519L43.0588 17.9345C42.7009 18.855 42.0169 18.8997 41.0581 18.6057L40.4445 20.6383C40.8344 20.8045 41.4672 20.9196 42.1576 20.9196Z" fill="white"/>
<path d="M51.0233 17.2378H53.7463V11.3443C53.7463 10.2576 54.4367 9.53535 55.3444 9.53535C56.2392 9.53535 56.8401 10.149 56.8401 11.1142V17.2378H59.48V11.242C59.48 10.2257 60.0617 9.53535 61.0525 9.53535C61.9218 9.53535 62.5738 10.0787 62.5738 11.1717V17.2378H65.2904V10.6348C65.2904 8.50623 64.0248 7.29174 62.1966 7.29174C60.7584 7.29174 59.6398 8.02683 59.2371 9.15183H59.1348C58.8216 8.01404 57.8181 7.29174 56.4694 7.29174C55.1462 7.29174 54.1427 7.99487 53.7336 9.15183H53.6185V7.41958H51.0233V17.2378Z" fill="white"/>
<path d="M67.7236 17.2378H69.5389V13.3088C69.5389 12.5844 69.9992 12.1028 70.6043 12.1028C71.2009 12.1028 71.6014 12.5119 71.6014 13.1554V17.2378H73.3614V13.2406C73.3614 12.563 73.7492 12.1028 74.4097 12.1028C74.9892 12.1028 75.4239 12.465 75.4239 13.1937V17.2378H77.235V12.8358C77.235 11.4167 76.3912 10.6071 75.1725 10.6071C74.2137 10.6071 73.4679 11.0971 73.1995 11.8471H73.1313C72.9225 11.0886 72.2534 10.6071 71.3543 10.6071C70.4722 10.6071 69.8031 11.0758 69.5304 11.8471H69.4537V10.6923H67.7236V17.2378Z" fill="#4AE290"/>
<path d="M81.6519 17.3656C83.2712 17.3656 84.3621 16.5772 84.6178 15.3628L82.9388 15.252C82.7556 15.7505 82.2868 16.0105 81.6817 16.0105C80.774 16.0105 80.1987 15.4096 80.1987 14.4338V14.4295H84.6561V13.9309C84.6561 11.7065 83.3095 10.6071 81.5794 10.6071C79.6533 10.6071 78.4047 11.975 78.4047 13.9949C78.4047 16.0701 79.6362 17.3656 81.6519 17.3656ZM80.1987 13.3045C80.2371 12.5588 80.8039 11.9622 81.6093 11.9622C82.3976 11.9622 82.9431 12.5247 82.9473 13.3045H80.1987Z" fill="#4AE290"/>
</svg>
