<svg width="120" height="120" viewBox="0 0 120 120" fill="none" xmlns="http://www.w3.org/2000/svg">
<path d="M107.499 20H94.1661V30C94.1661 30.963 93.9765 31.9166 93.6079 32.8064C93.2394 33.6961 92.6992 34.5045 92.0183 35.1855C91.3373 35.8664 90.5289 36.4066 89.6392 36.7751C88.7494 37.1437 87.7958 37.3334 86.8328 37.3334C85.8698 37.3334 84.9162 37.1437 84.0265 36.7751C83.1367 36.4066 82.3283 35.8664 81.6474 35.1855C80.9664 34.5045 80.4262 33.6961 80.0577 32.8064C79.6892 31.9166 79.4995 30.963 79.4995 30V20H40.6661V30C40.6661 31.9449 39.8935 33.8102 38.5183 35.1855C37.143 36.5607 35.2777 37.3334 33.3328 37.3334C31.3879 37.3334 29.5226 36.5607 28.1474 35.1855C26.7721 33.8102 25.9995 31.9449 25.9995 30V20H12.6661C11.8729 19.991 11.0859 20.1411 10.3517 20.4416C9.61743 20.742 8.95091 21.1866 8.39152 21.7491C7.83212 22.3116 7.39121 22.9806 7.09485 23.7165C6.7985 24.4523 6.65272 25.2402 6.66614 26.0334V100.633C6.6529 101.413 6.79329 102.187 7.07929 102.912C7.3653 103.637 7.79132 104.298 8.33301 104.858C8.87471 105.419 9.52147 105.867 10.2364 106.177C10.9513 106.487 11.7203 106.654 12.4995 106.667H107.499C108.279 106.654 109.048 106.487 109.763 106.177C110.477 105.867 111.124 105.419 111.666 104.858C112.208 104.298 112.634 103.637 112.92 102.912C113.206 102.187 113.346 101.413 113.333 100.633V26.0334C113.346 25.2541 113.206 24.48 112.92 23.755C112.634 23.0301 112.208 22.3686 111.666 21.8083C111.124 21.2481 110.477 20.8 109.763 20.4897C109.048 20.1794 108.279 20.013 107.499 20ZM33.3328 86.6667H26.6661V80H33.3328V86.6667ZM33.3328 70H26.6661V63.3334H33.3328V70ZM33.3328 53.3334H26.6661V46.6667H33.3328V53.3334ZM53.3328 86.6667H46.6661V80H53.3328V86.6667ZM53.3328 70H46.6661V63.3334H53.3328V70ZM53.3328 53.3334H46.6661V46.6667H53.3328V53.3334ZM73.3328 86.6667H66.6661V80H73.3328V86.6667ZM73.3328 70H66.6661V63.3334H73.3328V70ZM73.3328 53.3334H66.6661V46.6667H73.3328V53.3334ZM93.3328 86.6667H86.6661V80H93.3328V86.6667ZM93.3328 70H86.6661V63.3334H93.3328V70ZM93.3328 53.3334H86.6661V46.6667H93.3328V53.3334Z" fill="#131316" fill-opacity="0.05"/>
<path d="M33.3333 33.3333C34.2174 33.3333 35.0652 32.9821 35.6904 32.357C36.3155 31.7319 36.6667 30.884 36.6667 30V9.99996C36.6667 9.1159 36.3155 8.26806 35.6904 7.64294C35.0652 7.01782 34.2174 6.66663 33.3333 6.66663C32.4493 6.66663 31.6014 7.01782 30.9763 7.64294C30.3512 8.26806 30 9.1159 30 9.99996V30C30 30.884 30.3512 31.7319 30.9763 32.357C31.6014 32.9821 32.4493 33.3333 33.3333 33.3333Z" fill="#131316" fill-opacity="0.05"/>
<path d="M86.6666 33.3333C87.5507 33.3333 88.3986 32.9821 89.0237 32.357C89.6488 31.7319 90 30.884 90 30V9.99996C90 9.1159 89.6488 8.26806 89.0237 7.64294C88.3986 7.01782 87.5507 6.66663 86.6666 6.66663C85.7826 6.66663 84.9347 7.01782 84.3096 7.64294C83.6845 8.26806 83.3333 9.1159 83.3333 9.99996V30C83.3333 30.884 83.6845 31.7319 84.3096 32.357C84.9347 32.9821 85.7826 33.3333 86.6666 33.3333Z" fill="#131316" fill-opacity="0.05"/>
</svg>
