<svg width="38" height="38" viewBox="0 0 38 38" fill="none" xmlns="http://www.w3.org/2000/svg">
<path fill-rule="evenodd" clip-rule="evenodd" d="M19 0.666748C8.87496 0.666748 0.666626 8.87508 0.666626 19.0001C0.666626 29.1251 8.87496 37.3334 19 37.3334C29.125 37.3334 37.3333 29.1251 37.3333 19.0001C37.3333 8.87508 29.125 0.666748 19 0.666748ZM15.3216 13.5117C15.018 13.1974 14.85 12.7764 14.8538 12.3394C14.8576 11.9024 15.0329 11.4844 15.3419 11.1754C15.6509 10.8664 16.069 10.6911 16.506 10.6873C16.943 10.6835 17.364 10.8515 17.6783 11.1551L24.345 17.8217C24.6574 18.1343 24.8329 18.5581 24.8329 19.0001C24.8329 19.442 24.6574 19.8659 24.345 20.1784L17.6783 26.8451C17.364 27.1487 16.943 27.3167 16.506 27.3129C16.069 27.3091 15.6509 27.1338 15.3419 26.8248C15.0329 26.5158 14.8576 26.0977 14.8538 25.6607C14.85 25.2238 15.018 24.8027 15.3216 24.4884L20.81 19.0001L15.3216 13.5117Z" fill="#131316"/>
</svg>
