<svg width="38" height="38" viewBox="0 0 38 38" fill="none" xmlns="http://www.w3.org/2000/svg">
<path fill-rule="evenodd" clip-rule="evenodd" d="M19 0.666748C29.125 0.666748 37.3334 8.87508 37.3334 19.0001C37.3334 29.1251 29.125 37.3334 19 37.3334C8.87504 37.3334 0.66671 29.1251 0.66671 19.0001C0.66671 8.87508 8.87504 0.666748 19 0.666748ZM22.6784 13.5117C22.982 13.1974 23.15 12.7764 23.1462 12.3394C23.1424 11.9024 22.9671 11.4844 22.6581 11.1754C22.3491 10.8664 21.931 10.6911 21.494 10.6873C21.057 10.6835 20.636 10.8515 20.3217 11.1551L13.655 17.8217C13.3426 18.1343 13.1671 18.5581 13.1671 19.0001C13.1671 19.442 13.3426 19.8659 13.655 20.1784L20.3217 26.8451C20.636 27.1487 21.057 27.3167 21.494 27.3129C21.931 27.3091 22.3491 27.1338 22.6581 26.8248C22.9671 26.5158 23.1424 26.0977 23.1462 25.6607C23.15 25.2238 22.982 24.8027 22.6784 24.4884L17.19 19.0001L22.6784 13.5117Z" fill="#131316"/>
</svg>
